# xmcd
#
# Track frame offsets: 
#        150
#        21447
#        42787
#        67490
#        95262
#        125145
#        142912
#        161112
#        179900
#        212635
#        230787
#        247552
#        262197
#
# Disc length: 3692 seconds
#
# Revision: 2
# Processed by: cddbd v1.5.2PL0 Copyright (c) Steve Scherf et al.
# Submitted via: ExactAudioCopy v0.99pb4
#
DISCID=c80e6a0d
DTITLE=Sista Monica - Get Out My Way
DYEAR=1995
DGENRE=Blues
TTITLE0=Windy City Burner
TTITLE1=California Blues
TTITLE2=Come To Mama
TTITLE3=Love and Happiness
TTITLE4=I Am A Woman!
TTITLE5=Early In The Morning
TTITLE6=Behind My Back
TTITLE7=Boby Boomer
TTITLE8=Pussycat Moan
TTITLE9=I Don't Care No More
TTITLE10=It's A New Day
TTITLE11=Get Out My Way
TTITLE12=Precious Lord
EXTD=
EXTT0=
EXTT1=
EXTT2=
EXTT3=
EXTT4=
EXTT5=
EXTT6=
EXTT7=
EXTT8=
EXTT9=
EXTT10=
EXTT11=
EXTT12=
PLAYORDER=
